<svg xmlns="http://www.w3.org/2000/svg" version="1.1" xmlns:xlink="http://www.w3.org/1999/xlink" xmlns:svgjs="http://svgjs.com/svgjs" width="1440" height="800" preserveAspectRatio="none" viewBox="0 0 1440 800"><g mask="url(&quot;#SvgjsMask1024&quot;)" fill="none"><rect width="1440" height="800" x="0" y="0" fill="rgba(135, 233, 192, 0.9)"></rect><path d="M9 800L809 0L1068.5 0L268.5 800z" fill="url(#SvgjsLinearGradient1025)"></path><path d="M532.2 800L1332.2 0L1477.7 0L677.7 800z" fill="url(#SvgjsLinearGradient1025)"></path><path d="M1392 800L592 0L439 0L1239 800z" fill="url(#SvgjsLinearGradient1026)"></path><path d="M879.8 800L79.79999999999995 0L-47.700000000000045 0L752.3 800z" fill="url(#SvgjsLinearGradient1026)"></path><path d="M964.9186629687081 800L1440 324.9186629687081L1440 800z" fill="url(#SvgjsLinearGradient1025)"></path><path d="M0 800L475.0813370312919 800L 0 324.9186629687081z" fill="url(#SvgjsLinearGradient1026)"></path></g><defs><mask id="SvgjsMask1024"><rect width="1440" height="800" fill="#ffffff"></rect></mask><linearGradient x1="0%" y1="100%" x2="100%" y2="0%" id="SvgjsLinearGradient1025"><stop stop-color="rgba(15, 70, 185, 0.2)" offset="0"></stop><stop stop-opacity="0" stop-color="rgba(15, 70, 185, 0.2)" offset="0.66"></stop></linearGradient><linearGradient x1="100%" y1="100%" x2="0%" y2="0%" id="SvgjsLinearGradient1026"><stop stop-color="rgba(15, 70, 185, 0.2)" offset="0"></stop><stop stop-opacity="0" stop-color="rgba(15, 70, 185, 0.2)" offset="0.66"></stop></linearGradient></defs></svg>