<svg xmlns="http://www.w3.org/2000/svg" version="1.1" xmlns:xlink="http://www.w3.org/1999/xlink" xmlns:svgjs="http://svgjs.com/svgjs" width="1440" height="560" preserveAspectRatio="none" viewBox="0 0 1440 560"><g mask="url(&quot;#SvgjsMask1193&quot;)" fill="none"><rect width="1440" height="560" x="0" y="0" fill="rgba(246, 220, 172, 1)"></rect><path d="M0,445.364C82.462,449.308,155.216,393.118,218.809,340.474C277.136,292.189,302.131,219.541,346.717,158.34C405.116,78.179,530.937,23.749,521.476,-74.977C512.149,-172.302,385.066,-207.575,306.124,-265.258C244.384,-310.371,178.166,-340.336,110.245,-375.461C24.05,-420.037,-50.076,-509.016,-146.638,-499.403C-244.144,-489.696,-317.468,-404.532,-377.291,-326.925C-434.884,-252.211,-472.068,-162.918,-478.564,-68.807C-484.786,21.346,-464.758,114.566,-412.869,188.551C-364.93,256.904,-276.651,276.069,-205.758,320.165C-136.177,363.446,-81.85,441.449,0,445.364" fill="#eebc61"></path><path d="M1440 987.729C1520.402 1004.712 1609.783 974.778 1672.241 921.374 1732.3 870.021 1752.341 786.733 1766.0819999999999 708.917 1777.5529999999999 643.9590000000001 1755.546 581.228 1743.767 516.325 1732.475 454.106 1731.8519999999999 389.753 1698.4180000000001 336.08000000000004 1661.534 276.867 1612.233 220.89 1546.032 198.889 1479.006 176.61399999999998 1406.565 195.481 1339.198 216.7 1272.87 237.59199999999998 1209.377 268.175 1162.625 319.654 1115.213 371.85900000000004 1088.704 438.341 1075.069 507.531 1060.887 579.496 1046.592 659.377 1083.143 722.971 1119.106 785.5409999999999 1205.317 791.988 1263.276 834.989 1327.1 882.341 1362.245 971.3050000000001 1440 987.729" fill="#fefcf7"></path></g><defs><mask id="SvgjsMask1193"><rect width="1440" height="560" fill="#ffffff"></rect></mask></defs></svg>