<svg xmlns="http://www.w3.org/2000/svg" version="1.1" xmlns:xlink="http://www.w3.org/1999/xlink" xmlns:svgjs="http://svgjs.com/svgjs" width="1440" height="560" preserveAspectRatio="none" viewBox="0 0 1440 560"><g mask="url(&quot;#SvgjsMask1112&quot;)" fill="none"><rect width="1440" height="560" x="0" y="0" fill="rgba(236, 181, 80, 0.9)"></rect><path d="M0,288.885C65.842,299.431,134.209,330.541,195.404,304.054C258.618,276.693,302.914,213.639,324.768,148.317C345.667,85.85,333.535,17.421,312.144,-44.879C293.244,-99.925,245.739,-136.144,211.05,-182.876C172.853,-234.334,158.436,-312.395,97.918,-333.479C37.523,-354.52,-26.997,-314.881,-83.866,-285.621C-132.96,-260.362,-161.497,-211.631,-204.994,-177.628C-262.22,-132.893,-359.159,-124.301,-379.446,-54.556C-399.142,13.157,-337.578,78.226,-295.979,135.169C-260.441,183.816,-212.394,219.531,-158.929,247.298C-109.327,273.058,-55.188,280.045,0,288.885" fill="rgba(235, 175, 66, 0.9)"></path><path d="M1440 914.692C1513.611 914.655 1601.258 945.0840000000001 1655.49 895.309 1711.031 844.332 1679.571 750.937 1698.051 677.848 1712.3319999999999 621.367 1748.618 573.382 1751.6 515.199 1755.045 447.979 1749.9479999999999 378.85900000000004 1716.366 320.527 1678.995 255.61399999999998 1627.987 183.298 1553.958 171.89600000000002 1479.621 160.44600000000003 1419.61 229.17200000000003 1353.263 264.601 1301.088 292.463 1249.6399999999999 317.24 1206.334 357.528 1158.606 401.93 1104.0439999999999 446.032 1089.849 509.656 1075.314 574.802 1107.5520000000001 638.761 1129.525 701.789 1153.684 771.088 1163.845 854.021 1224.371 895.525 1285.113 937.177 1366.349 914.729 1440 914.692" fill="rgba(238, 187, 94, 0.9)"></path></g><defs><mask id="SvgjsMask1112"><rect width="1440" height="560" fill="#ffffff"></rect></mask></defs></svg>