<svg xmlns="http://www.w3.org/2000/svg" version="1.1" xmlns:xlink="http://www.w3.org/1999/xlink" xmlns:svgjs="http://svgjs.com/svgjs" width="1440" height="560" preserveAspectRatio="none" viewBox="0 0 1440 560"><g mask="url(&quot;#SvgjsMask1212&quot;)" fill="none"><rect width="1440" height="560" x="0" y="0" fill="rgba(254, 251, 246, 1)"></rect><path d="M0,457.687C87.517,456.703,113.272,331.266,170.13,264.727C209,219.239,254.256,181.837,281.316,128.473C309.297,73.292,325.061,14.582,328.304,-47.203C332.155,-120.566,346.052,-202.869,301.785,-261.498C257.212,-320.532,175.54,-340.013,101.904,-347.054C35.631,-353.391,-22.167,-310.374,-87.718,-298.741C-164.377,-285.136,-252.219,-318.939,-315.111,-273.045C-379.884,-225.779,-419.449,-139.786,-415.284,-59.709C-411.241,18.023,-340.195,71.64,-293.926,134.232C-257.316,183.757,-214.024,223.002,-172.606,268.581C-114.023,333.05,-87.104,458.666,0,457.687" fill="#fcf1e0"></path><path d="M1440 858.5409999999999C1519.379 869.847 1596.482 950.739 1668.621 915.741 1738.638 881.7719999999999 1743.976 781.487 1756.9769999999999 704.759 1767.691 641.531 1743.271 581.153 1736.115 517.425 1728.6680000000001 451.11 1749.348 379.16499999999996 1714.055 322.53 1677.071 263.181 1609.903 229.48899999999998 1543.336 208.06900000000002 1475.622 186.27999999999997 1403.051 181.73200000000003 1334.401 200.36200000000002 1264.884 219.22699999999998 1193.855 252.476 1155.358 313.356 1118.3 371.96000000000004 1148.438 448.13800000000003 1134.74 516.11 1119.872 589.888 1047.652 656.873 1071.7649999999999 728.167 1095.655 798.799 1179.436 831.19 1249.724 856.075 1310.754 877.683 1375.905 849.412 1440 858.5409999999999" fill="#ffffff"></path></g><defs><mask id="SvgjsMask1212"><rect width="1440" height="560" fill="#ffffff"></rect></mask></defs></svg>