<svg xmlns="http://www.w3.org/2000/svg" version="1.1" xmlns:xlink="http://www.w3.org/1999/xlink" xmlns:svgjs="http://svgjs.com/svgjs" width="1440" height="560" preserveAspectRatio="none" viewBox="0 0 1440 560"><g mask="url(&quot;#SvgjsMask1038&quot;)" fill="none"><rect width="1440" height="560" x="0" y="0" fill="rgba(53, 242, 198, 0.63)"></rect><path d="M0,487.977C110.119,513.623,240.167,582.417,331.197,515.353C423.692,447.21,365.587,293.146,408.893,186.735C449.445,87.09,585.361,24.429,574.547,-82.607C563.805,-188.937,443.265,-245.498,358.632,-310.756C288.335,-364.96,205.157,-388.722,125.845,-428.589C25.594,-478.981,-57.159,-583.057,-169.143,-576.048C-283.896,-568.865,-389.492,-488.337,-452.819,-392.37C-513.522,-300.38,-485.879,-181.206,-501.672,-72.129C-517.485,37.084,-600.092,153.196,-545.713,249.219C-490.652,346.448,-347.331,336.383,-244.963,381.171C-161.666,417.615,-88.55,467.354,0,487.977" fill="rgba(15, 227, 178, 0.63)"></path><path d="M1440 986.05C1518.221 980.239 1569.375 904.866 1628.529 853.357 1679.253 809.188 1728.931 765.721 1760.954 706.575 1794.7 644.247 1831.798 575.087 1816.682 505.841 1801.753 437.45 1727.896 403.147 1682.997 349.442 1637.049 294.483 1610.996 223.50799999999998 1549.6779999999999 186.47000000000003 1478.357 143.39 1393.4470000000001 106.05399999999997 1312.455 125.62 1230.754 145.35700000000003 1181.659 224.93200000000002 1126.815 288.624 1072.1390000000001 352.121 997.034 412.101 993.6759999999999 495.828 990.345 578.89 1066.216 640.023 1109.885 710.758 1147.647 771.924 1177.359 836.738 1232.565 882.7760000000001 1293.112 933.267 1361.38 991.8910000000001 1440 986.05" fill="rgba(103, 245, 212, 0.63)"></path></g><defs><mask id="SvgjsMask1038"><rect width="1440" height="560" fill="#ffffff"></rect></mask></defs></svg>